<svg width="30" height="30" viewBox="0 0 30 30" fill="none" xmlns="http://www.w3.org/2000/svg">
<path d="M14.9172 6.41582V14.9158L17.1272 16.0208M16.6554 28.9762C13.7808 29.3317 10.8663 28.7975 8.30466 27.4457C5.743 26.0938 3.65728 23.9892 2.32856 21.4154C0.999835 18.8417 0.491961 15.9225 0.873373 13.0512C1.25479 10.1799 2.50715 7.49456 4.46172 5.35695C6.41629 3.21934 8.97912 1.73223 11.8049 1.09599C14.6306 0.45976 17.5835 0.704982 20.2656 1.79862C22.9477 2.89225 25.2301 4.78174 26.8053 7.21248C28.3805 9.64321 29.1728 12.4984 29.0753 15.3932M29.0838 23.4158L23.4172 17.7491L17.7505 23.4158M23.4172 17.7491V29.0825" stroke="#FF6A00" stroke-width="1.5" stroke-linecap="round" stroke-linejoin="round"/>
</svg>
